<?xml version="1.0" standalone="no"?>
<!DOCTYPE svg PUBLIC "-//W3C//DTD SVG 20010904//EN"
 "http://www.w3.org/TR/2001/REC-SVG-20010904/DTD/svg10.dtd">
<svg version="1.0" xmlns="http://www.w3.org/2000/svg"
 width="512.000000pt" height="512.000000pt" viewBox="0 0 512.000000 512.000000"
 preserveAspectRatio="xMidYMid meet">

<g transform="translate(0.000000,512.000000) scale(0.100000,-0.100000)"
fill="#000000" stroke="none">
<path d="M2270 5098 c-78 -41 -85 -57 -88 -234 l-3 -154 -217 0 c-313 0 -398
-25 -528 -154 -77 -78 -114 -143 -139 -248 -22 -95 -22 -3811 0 -3906 46 -195
200 -347 392 -387 100 -21 1646 -21 1746 0 195 41 351 198 393 394 21 103 21
3807 -1 3900 -22 93 -77 191 -143 254 -130 123 -215 147 -523 147 l-218 0 -3
154 c-3 177 -10 193 -88 234 -42 21 -55 22 -290 22 -235 0 -248 -1 -290 -22z
m1222 -525 c123 -58 211 -166 237 -291 16 -76 16 -3779 0 -3854 -33 -156 -162
-284 -317 -317 -74 -15 -1630 -15 -1704 0 -155 33 -284 161 -317 317 -16 75
-16 3779 0 3854 32 149 160 282 305 317 23 5 395 9 884 8 l845 -2 67 -32z"/>
</g>
</svg>
