<?xml version="1.0" standalone="no"?>
<!DOCTYPE svg PUBLIC "-//W3C//DTD SVG 20010904//EN"
 "http://www.w3.org/TR/2001/REC-SVG-20010904/DTD/svg10.dtd">
<svg version="1.0" xmlns="http://www.w3.org/2000/svg"
 width="512.000000pt" height="512.000000pt" viewBox="0 0 512.000000 512.000000"
 preserveAspectRatio="xMidYMid meet">

<g transform="translate(0.000000,512.000000) scale(0.100000,-0.100000)"
fill="#000000" stroke="none">
<path d="M1530 3940 c-547 -203 -1071 -396 -1163 -431 -93 -34 -177 -71 -188
-82 -26 -28 -24 -73 3 -100 15 -14 188 -83 468 -186 245 -90 448 -166 452
-170 4 -3 -200 -82 -453 -175 -324 -119 -464 -175 -475 -190 -18 -26 -18 -66
0 -92 11 -15 151 -71 475 -190 253 -93 457 -172 453 -176 -4 -4 -209 -81 -457
-172 -310 -114 -455 -172 -467 -187 -32 -39 -19 -92 28 -117 46 -24 2334 -862
2355 -862 20 0 2221 805 2328 851 24 11 50 27 57 37 21 27 17 70 -8 95 -15 14
-177 79 -443 176 -231 85 -436 160 -455 168 l-35 14 460 170 c309 113 466 176
478 190 24 30 22 75 -5 102 -15 14 -191 83 -475 187 -248 91 -449 168 -445
171 4 4 205 79 447 168 242 89 450 169 462 177 47 30 37 110 -15 134 -103 46
-2334 860 -2358 859 -16 -1 -477 -167 -1024 -369z m2075 -177 c561 -207 1023
-379 1027 -382 5 -4 -460 -179 -1031 -390 l-1040 -383 -1040 383 c-572 211
-1038 386 -1035 388 14 14 2071 768 2084 764 8 -3 474 -174 1035 -380z m-1656
-1918 c320 -118 595 -215 611 -215 16 0 286 95 602 211 315 117 583 214 595
217 26 5 887 -309 875 -319 -4 -4 -471 -178 -1039 -387 l-1032 -380 -1033 380
c-568 209 -1036 383 -1040 387 -8 7 826 318 858 320 11 1 282 -96 603 -214z"/>
</g>
</svg>
