<?xml version="1.0" standalone="no"?>
<!DOCTYPE svg PUBLIC "-//W3C//DTD SVG 20010904//EN"
 "http://www.w3.org/TR/2001/REC-SVG-20010904/DTD/svg10.dtd">
<svg version="1.0" xmlns="http://www.w3.org/2000/svg"
 width="512.000000pt" height="512.000000pt" viewBox="0 0 512.000000 512.000000"
 preserveAspectRatio="xMidYMid meet">

<g transform="translate(0.000000,512.000000) scale(0.100000,-0.100000)"
fill="#000000" stroke="none">
<path d="M2315 5109 c-492 -50 -977 -248 -1355 -552 -111 -90 -281 -258 -375
-372 -254 -308 -454 -722 -529 -1095 -43 -217 -51 -295 -50 -535 0 -264 14
-381 74 -620 48 -191 93 -312 185 -500 132 -269 269 -460 489 -681 223 -222
411 -357 691 -494 247 -122 505 -200 800 -242 118 -17 512 -17 630 0 416 60
764 190 1097 412 383 254 682 594 883 1005 92 186 136 306 185 499 60 238 74
356 74 621 1 316 -32 528 -125 810 -53 159 -173 417 -255 545 -146 229 -367
479 -564 637 -370 296 -777 475 -1250 548 -125 19 -477 28 -605 14z m400 -169
c852 -61 1591 -551 1974 -1310 588 -1162 129 -2580 -1032 -3185 -926 -483
-2056 -305 -2792 440 -716 725 -894 1818 -444 2725 379 764 1124 1269 1962
1329 163 12 178 12 332 1z"/>
<path d="M2360 4704 c-307 -37 -544 -108 -789 -235 -415 -216 -734 -543 -941
-964 -100 -204 -156 -376 -197 -610 -27 -156 -25 -530 5 -690 111 -609 439
-1110 947 -1445 272 -179 590 -295 920 -335 165 -21 441 -16 595 10 737 122
1357 612 1645 1300 121 289 173 580 162 905 -19 553 -241 1057 -639 1451 -317
314 -716 517 -1168 594 -91 16 -459 29 -540 19z m371 -174 c383 -37 727 -171
1031 -401 106 -80 287 -261 367 -367 466 -617 539 -1420 190 -2102 -485 -949
-1643 -1344 -2602 -887 -216 103 -381 220 -553 391 -171 172 -288 337 -391
553 -404 848 -149 1864 610 2430 387 288 881 428 1348 383z"/>
<path d="M2509 4177 c-31 -24 -39 -56 -39 -161 0 -124 8 -151 53 -172 30 -14
37 -14 69 -1 48 20 62 67 56 201 -4 93 -5 100 -31 122 -31 26 -82 31 -108 11z"/>
<path d="M2523 3660 c-46 -19 -55 -50 -51 -179 2 -99 6 -122 22 -139 43 -48
124 -31 145 29 6 18 11 71 11 119 0 105 -13 146 -51 165 -32 17 -44 18 -76 5z"/>
<path d="M2490 3089 c-260 -28 -461 -256 -461 -523 0 -313 247 -550 556 -533
178 9 321 91 420 240 76 115 105 284 70 417 -68 263 -311 428 -585 399z m225
-206 c74 -38 138 -105 173 -181 36 -77 37 -190 3 -276 -32 -79 -118 -165 -197
-197 -86 -34 -199 -33 -276 3 -208 96 -281 342 -157 527 43 65 120 124 190
147 28 9 73 13 124 11 66 -3 91 -9 140 -34z"/>
<path d="M1207 3036 c-50 -21 -117 -135 -158 -266 -20 -62 -24 -97 -24 -205 0
-152 15 -219 75 -340 53 -109 88 -145 138 -145 80 0 112 82 59 151 -69 92
-101 212 -95 360 5 120 25 185 88 289 45 74 46 102 7 138 -29 26 -58 32 -90
18z"/>
<path d="M3863 3042 c-12 -2 -34 -17 -49 -34 -31 -37 -28 -71 11 -122 61 -80
95 -196 95 -326 0 -132 -34 -246 -97 -329 -53 -68 -21 -151 58 -151 31 0 43 7
71 40 105 122 165 352 139 535 -14 102 -50 208 -96 285 -50 83 -85 110 -132
102z"/>
<path d="M1571 2912 c-88 -91 -131 -205 -131 -347 0 -144 54 -289 135 -364 63
-58 121 -56 153 6 20 36 14 59 -32 120 -58 77 -76 123 -83 208 -8 96 13 164
77 251 27 38 50 79 50 92 0 35 -52 82 -91 82 -26 0 -42 -10 -78 -48z"/>
<path d="M3406 2934 c-38 -39 -35 -84 9 -133 19 -21 47 -65 62 -97 24 -50 28
-72 28 -144 0 -97 -24 -162 -88 -238 -40 -47 -45 -77 -22 -121 16 -32 33 -41
76 -41 66 0 158 126 194 265 19 73 19 203 1 271 -19 71 -71 166 -121 219 -51
55 -96 61 -139 19z"/>
<path d="M1795 1705 l-25 -24 0 -285 0 -285 24 -28 24 -28 742 0 742 0 24 28
24 28 0 285 0 285 -25 24 -24 25 -741 0 -741 0 -24 -25z m1385 -310 l0 -165
-620 0 -620 0 0 165 0 165 620 0 620 0 0 -165z"/>
</g>
</svg>
