<?xml version="1.0" standalone="no"?>
<!DOCTYPE svg PUBLIC "-//W3C//DTD SVG 20010904//EN"
 "http://www.w3.org/TR/2001/REC-SVG-20010904/DTD/svg10.dtd">
<svg version="1.0" xmlns="http://www.w3.org/2000/svg"
 width="512.000000pt" height="512.000000pt" viewBox="0 0 512.000000 512.000000"
 preserveAspectRatio="xMidYMid meet">

<g transform="translate(0.000000,512.000000) scale(0.100000,-0.100000)"
fill="#000000" stroke="none">
<path d="M1175 5106 c-133 -42 -222 -146 -245 -287 -5 -35 -10 -174 -10 -309
l0 -246 -39 -38 -39 -38 39 -35 39 -35 0 -323 0 -323 110 -102 110 -102 0 761
c0 839 -2 812 62 851 29 18 50 20 191 20 154 0 158 -1 182 -25 16 -15 25 -35
25 -55 0 -21 9 -41 29 -61 l29 -29 430 0 430 0 26 31 c15 18 26 43 26 60 0 18
10 39 25 54 24 24 28 25 180 25 171 0 197 -6 231 -57 18 -27 19 -78 22 -1751
2 -1898 7 -1771 -60 -1812 -32 -20 -48 -20 -886 -20 l-854 0 -30 21 c-49 36
-58 71 -58 239 l0 150 -25 0 c-66 0 -116 36 -359 265 -155 145 -185 187 -186
256 -1 136 131 244 256 210 37 -10 30 -2 -98 122 -140 135 -158 162 -158 237
0 136 137 238 267 201 33 -10 41 -18 -165 173 -65 61 -90 101 -98 157 -21 152
133 281 273 228 28 -10 28 -10 8 9 -118 112 -314 292 -318 292 -3 0 -38 -54
-77 -121 -462 -772 -459 -1742 8 -2512 39 -65 104 -162 144 -215 83 -110 318
-352 423 -434 369 -289 784 -461 1250 -518 99 -12 438 -15 509 -5 43 7 45 9
40 34 -12 50 -53 132 -96 187 -75 98 -185 177 -368 266 -188 92 -296 157 -392
234 -83 67 -187 171 -244 243 l-44 56 648 5 647 5 57 28 c72 35 134 97 167
167 l26 55 6 355 c4 195 7 798 8 1341 l1 985 29 46 c75 118 252 117 336 -1
l30 -43 6 -316 c8 -402 19 -459 151 -747 159 -344 178 -412 185 -655 4 -128 0
-208 -16 -355 -23 -207 -26 -315 -11 -385 6 -25 77 -220 158 -434 l147 -388
86 90 c97 103 206 243 277 359 77 123 134 232 128 241 -3 5 -20 12 -37 16 -72
14 -176 75 -232 135 -98 106 -118 212 -82 436 22 143 30 361 16 483 -27 245
-73 403 -242 822 -65 162 -125 322 -134 355 -43 168 3 367 129 554 20 29 36
56 36 60 0 4 -24 27 -52 52 -246 211 -544 378 -849 478 -64 21 -67 24 -74 59
-19 104 -96 201 -198 248 l-62 29 -880 2 c-691 2 -889 -1 -920 -11z"/>
<path d="M1577 3832 c-23 -25 -21 -78 3 -102 19 -19 33 -20 250 -20 217 0 231
1 250 20 26 26 26 81 2 103 -16 15 -49 17 -254 17 -215 0 -236 -2 -251 -18z"/>
<path d="M1580 2900 c-28 -28 -27 -84 2 -104 19 -13 60 -16 250 -16 215 0 229
1 248 20 11 11 20 33 20 50 0 17 -9 39 -20 50 -19 19 -33 20 -250 20 -217 0
-231 -1 -250 -20z"/>
<path d="M1025 2813 c6 -5 34 -31 63 -58 l52 -48 0 41 c0 39 -1 41 -42 50 -24
5 -52 13 -63 17 -13 5 -17 5 -10 -2z"/>
<path d="M1020 2256 c0 -2 27 -26 60 -55 l60 -52 0 40 c0 33 -3 41 -19 41 -10
0 -37 7 -60 15 -22 8 -41 13 -41 11z"/>
<path d="M1580 1970 c-26 -26 -26 -81 -2 -103 16 -15 49 -17 254 -17 215 0
236 2 251 18 23 25 21 78 -3 102 -19 19 -33 20 -250 20 -217 0 -231 -1 -250
-20z"/>
</g>
</svg>
